Coordinates
version=1
nRows=21
nColumns=38
inDegrees=no

Units are S.I. units (second, meters, Newtons, ...)
If the header above contains a line with 'inDegrees', this indicates whether rotational values are in degrees (yes) or radians (no).

endheader
time	pelvis_tilt	pelvis_list	pelvis_rotation	pelvis_tx	pelvis_ty	pelvis_tz	hip_flexion_r	hip_adduction_r	hip_rotation_r	knee_angle_r	ankle_angle_r	subtalar_angle_r	mtp_angle_r	hip_flexion_l	hip_adduction_l	hip_rotation_l	knee_angle_l	ankle_angle_l	subtalar_angle_l	mtp_angle_l	lumbar_extension	lumbar_bending	lumbar_rotation	arm_flex_r	arm_add_r	arm_rot_r	elbow_flex_r	pro_sup_r	wrist_flex_r	wrist_dev_r	arm_flex_l	arm_add_l	arm_rot_l	elbow_flex_l	pro_sup_l	wrist_flex_l	wrist_dev_l
1.89	-0.166058	0.0317229	0.1389	0.968245	1.02304	-0.352152	-0.108203	0.131561	0.0676203	-1.1223	-0.246136	0.054096	9.92672e-06	0.673918	0.181948	-0.0325655	-0.392212	0.121474	0.0566948	-6.8431e-05	-0.0978029	-0.053153	0.10885	-0.273013	-0.327163	-0.0139734	2.1112	2.02982	-0.000960851	0.0655155	-0.805095	-0.181792	-0.266112	2.18936	1.86797	0.0999988	0.0999984
1.9	-0.160414	0.0334729	0.140018	0.967785	1.0171	-0.351984	-0.0763204	0.121259	0.0471795	-1.23383	-0.222353	0.054096	9.92672e-06	0.6646	0.181563	-0.043362	-0.423824	0.116204	0.0566948	-6.8431e-05	-0.105702	-0.0576028	0.0996405	-0.291822	-0.322527	-0.028698	2.05403	2.03463	-0.000960851	0.0655155	-0.781117	-0.182337	-0.262091	2.18081	1.86587	0.0999988	0.0999984
1.91	-0.156064	0.0366974	0.140944	0.967014	1.01031	-0.351877	-0.0404287	0.103695	0.0212151	-1.34252	-0.197367	0.054096	9.92672e-06	0.660825	0.181759	-0.0552862	-0.474942	0.116239	0.0566948	-6.8431e-05	-0.112768	-0.0637208	0.0886651	-0.309569	-0.317379	-0.0436151	1.99213	2.04499	-0.000960851	0.0655155	-0.753459	-0.184583	-0.256058	2.16643	1.86245	0.0999988	0.0999984
1.92	-0.152812	0.0412813	0.141482	0.965907	1.00298	-0.351825	-0.000708498	0.0800397	-0.0066069	-1.44676	-0.170376	0.054096	9.92672e-06	0.661106	0.183209	-0.065885	-0.541533	0.12489	0.0566948	-6.8431e-05	-0.119394	-0.0712809	0.076136	-0.325768	-0.31183	-0.0583698	1.92667	2.0615	-0.000960851	0.0655155	-0.721714	-0.188328	-0.247987	2.14547	1.85767	0.0999988	0.0999984
1.93	-0.150263	0.0469677	0.1414	0.964487	0.99562	-0.351825	0.0426988	0.052013	-0.032777	-1.54511	-0.141139	0.054096	9.92672e-06	0.663125	0.186226	-0.0733849	-0.618027	0.144432	0.0566948	-6.8431e-05	-0.125976	-0.0798859	0.062363	-0.340262	-0.306045	-0.072804	1.85927	2.08409	-0.000960851	0.0655155	-0.685676	-0.193309	-0.237868	2.11764	1.85156	0.0999988	0.0999984
1.94	-0.14801	0.0533797	0.140424	0.962779	0.988677	-0.351831	0.0895925	0.0217607	-0.0542942	-1.63615	-0.109992	0.054096	9.92672e-06	0.663923	0.19068	-0.0769213	-0.697831	0.17543	0.0566948	-6.8431e-05	-0.132878	-0.0889456	0.0477408	-0.353255	-0.300293	-0.0868706	1.79206	2.11184	-0.000960851	0.0655155	-0.645518	-0.199185	-0.225808	2.08341	1.84431	0.0999988	0.0999984
1.95	-0.145631	0.0600363	0.138268	0.960807	0.982427	-0.351829	0.139664	-0.00836921	-0.0689228	-1.71848	-0.0776852	0.054096	9.92672e-06	0.660338	0.19604	-0.0764812	-0.774131	0.216536	0.0566948	-6.8431e-05	-0.14032	-0.0977575	0.0326939	-0.365291	-0.294956	-0.10052	1.7276	2.14278	-0.000960851	0.0655155	-0.601966	-0.205516	-0.21215	2.04425	1.83628	0.0999988	0.0999984
1.96	-0.142835	0.0664023	0.13467	0.958618	0.977045	-0.351806	0.192458	-0.0360944	-0.0753844	-1.79069	-0.0451538	0.054096	9.92672e-06	0.649523	0.201521	-0.0726551	-0.840823	0.26476	0.0566948	-6.8431e-05	-0.148315	-0.105591	0.0175899	-0.377153	-0.290507	-0.113612	1.66869	2.17393	-0.000960851	0.0655155	-0.556387	-0.211767	-0.197553	2.00271	1.82802	0.0999988	0.0999984
1.97	-0.139454	0.0719342	0.129466	0.956322	0.972758	-0.351748	0.247408	-0.0594645	-0.0734548	-1.85143	-0.0133355	0.054096	9.92672e-06	0.629436	0.206248	-0.0663467	-0.893228	0.316032	0.0566948	-6.8431e-05	-0.156574	-0.111772	0.00266592	-0.389746	-0.28744	-0.125895	1.61807	2.2017	-0.000960851	0.0655155	-0.510742	-0.217337	-0.182995	1.96228	1.82008	0.0999988	0.0999984
1.98	-0.13551	0.0760524	0.122631	0.954103	0.969835	-0.35163	0.303862	-0.077071	-0.0639312	-1.8995	0.0169439	0.054096	9.92672e-06	0.599103	0.209378	-0.0585523	-0.928478	0.365822	0.0566948	-6.8431e-05	-0.164508	-0.115741	-0.0119753	-0.403966	-0.28617	-0.137079	1.57814	2.22246	-0.000960851	0.0655155	-0.467361	-0.221633	-0.169638	1.92699	1.81291	0.0999988	0.0999984
1.99	-0.131225	0.0782212	0.11429	0.952165	0.96845	-0.351455	0.361089	-0.0881119	-0.048451	-1.93397	0.0450299	0.054096	9.92672e-06	0.558624	0.21015	-0.0502275	-0.945505	0.409627	0.0566948	-6.8431e-05	-0.171324	-0.117029	-0.0262953	-0.420596	-0.286943	-0.146959	1.55062	2.2332	-0.000960851	0.0655155	-0.428572	-0.224157	-0.158596	1.90075	1.80674	0.0999988	0.0999984
2	-0.126977	0.0779734	0.104681	0.950673	0.968614	-0.351244	0.418258	-0.0923709	-0.0292042	-1.9542	0.0704759	0.054096	9.92672e-06	0.508956	0.207924	-0.0422397	-0.944768	0.4433	0.0566948	-6.8431e-05	-0.176199	-0.115248	-0.0402203	-0.440243	-0.289757	-0.155555	1.53632	2.23222	-0.000960851	0.0655155	-0.39628	-0.224599	-0.150661	1.88673	1.80155	0.0999988	0.0999984
2.01	-0.123256	0.0749633	0.0940971	0.949737	0.970234	-0.35101	0.474426	-0.0901505	-0.00861439	-1.95992	0.0930651	0.054096	9.92672e-06	0.451618	0.202241	-0.0353695	-0.92784	0.463253	0.0566948	-6.8431e-05	-0.178453	-0.110097	-0.0535714	-0.463296	-0.294326	-0.163187	1.53507	2.21931	-0.000960851	0.0655155	-0.371628	-0.222901	-0.1461	1.88674	1.79718	0.0999988	0.0999984
2.02	-0.120438	0.0690333	0.0828605	0.949443	0.973171	-0.350771	0.528595	-0.0821944	0.010957	-1.95122	0.112804	0.054096	9.92672e-06	0.388458	0.192877	-0.0303333	-0.896977	0.466608	0.0566948	-6.8431e-05	-0.177628	-0.101427	-0.0660521	-0.489907	-0.300098	-0.170457	1.5457	2.19579	-0.000960851	0.0655155	-0.354845	-0.219278	-0.144586	1.90099	1.79341	0.0999988	0.0999984
2.03	-0.118771	0.0602222	0.0712663	0.949834	0.977263	-0.350534	0.579769	-0.0696018	0.0274608	-1.92851	0.129876	0.054096	9.92672e-06	0.321433	0.179898	-0.0278096	-0.854787	0.45136	0.0566948	-6.8431e-05	-0.173555	-0.0893121	-0.0772978	-0.519984	-0.306331	-0.178135	1.56631	2.16399	-0.000960851	0.0655155	-0.345324	-0.214189	-0.145304	1.9282	1.79015	0.0999988	0.0999984
2.04	-0.118377	0.0488161	0.059544	0.950914	0.982311	-0.350297	0.62703	-0.0537032	0.0393415	-1.89247	0.144555	0.054096	9.92672e-06	0.25247	0.16366	-0.0284083	-0.804011	0.416543	0.0566948	-6.8431e-05	-0.166365	-0.0740772	-0.0869587	-0.553186	-0.312219	-0.18697	1.59451	2.12663	-0.000960851	0.0655155	-0.341875	-0.208258	-0.147176	1.96599	1.78745	0.0999988	0.0999984
2.05	-0.11923	0.0353246	0.0478448	0.952661	0.988098	-0.35005	0.66959	-0.0359133	0.0456554	-1.84394	0.157108	0.054096	9.92672e-06	0.18338	0.144797	-0.0325562	-0.747416	0.362391	0.0566948	-6.8431e-05	-0.156443	-0.0563126	-0.0947998	-0.588918	-0.317032	-0.197489	1.62772	2.08613	-0.000960851	0.0655155	-0.343054	-0.20217	-0.149122	2.01141	1.78557	0.0999988	0.0999984
2.06	-0.12115	0.0204508	0.0362674	0.955006	0.994409	-0.34977	0.706816	-0.017577	0.0461274	-1.78382	0.167727	0.054096	9.92672e-06	0.115793	0.124185	-0.0402992	-0.687765	0.290432	0.0566948	-6.8431e-05	-0.144376	-0.0368439	-0.100788	-0.626343	-0.320239	-0.209843	1.66349	2.04419	-0.000960851	0.0655155	-0.347454	-0.196569	-0.150279	2.06146	1.78475	0.0999988	0.0999984
2.07	-0.123882	0.00505024	0.0248922	0.957818	1.00103	-0.349432	0.738206	0.000161104	0.0411553	-1.71304	0.176499	0.054096	9.92672e-06	0.0511119	0.102899	-0.0510869	-0.627827	0.203516	0.0566948	-6.8431e-05	-0.130928	-0.0166662	-0.10514	-0.664413	-0.321566	-0.223772	1.69969	2.00179	-0.000960851	0.0655155	-0.353886	-0.191981	-0.150122	2.11346	1.78509	0.0999988	0.0999984
2.08	-0.127096	-0.00995746	0.0138231	0.960927	1.00775	-0.349017	0.763368	0.0164468	0.0317776	-1.63246	0.183446	0.054096	9.92672e-06	-0.00949454	0.0821486	-0.0636409	-0.570384	0.105715	0.0566948	-6.8431e-05	-0.116961	0.00313218	-0.108302	-0.70194	-0.321	-0.238683	1.73464	1.95953	-0.000960851	0.0655155	-0.361462	-0.188763	-0.148473	2.16522	1.7864	0.0999988	0.0999984
2.09	-0.130402	-0.0236775	0.00320873	0.964155	1.01436	-0.348525	0.782006	0.0307687	0.0195897	-1.5429	0.188597	0.054096	9.92672e-06	-0.0650782	0.0631905	-0.0759808	-0.518212	0.00211301	0.0566948	-6.8431e-05	-0.10335	0.0214835	-0.110862	-0.737699	-0.318738	-0.253811	1.76716	1.918	-0.000960851	0.0655155	-0.369579	-0.187087	-0.145419	2.21504	1.78821	0.0999988	0.0999984
